# xmcd CD database file
#
# Track frame offsets:
#	150
#	18861
#	33054
#	55472
#	69481
#	89157
#	103418
#	120256
#	135979
#	151384
#	169512
#	188731
#
# Disc length: 2755 seconds
#
# Revision: 2
# Processed by: cddbd v1.5PL3 Copyright (c) Steve Scherf et al.
# Submitted via: CDex 1.51
#
DISCID=950ac10c
DTITLE=BRIAN CRAIN - Sienna
DYEAR=2003
DGENRE=New Age
TTITLE0=Song for Sienna
TTITLE1=Lavender Hills
TTITLE2=Crimson sky
TTITLE3=The secret Letter
TTITLE4=Eclipse of the Moon
TTITLE5=Midnight Blue
TTITLE6=The Garden Gate
TTITLE7=At first Light
TTITLE8=Season of Joy
TTITLE9=Tears in the Fountain
TTITLE10=Song of the Heart
TTITLE11=After Sunset
EXTD=YEAR: 2003
EXTT0=
EXTT1=
EXTT2=
EXTT3=
EXTT4=
EXTT5=
EXTT6=
EXTT7=
EXTT8=
EXTT9=
EXTT10=
EXTT11=
PLAYORDER=
